{"error":"Failed to process image","details":"Error: Command failed: ffmpeg -i \"C:\\Users\\ADMIN\\AppData\\Local\\Temp\\media-editor-img-1772011682034\\input.jpg\" -vf \"scale=100:100:force_original_aspect_ratio=decrease\" -compression_level 8 -y \"C:\\Users\\ADMIN\\AppData\\Local\\Temp\\media-editor-img-1772011682034\\output.png\"\nffmpeg version 2025-01-22-git-e20ee9f9ae-full_build-www.gyan.dev Copyright (c) 2000-2025 the FFmpeg developers\r\n  built with gcc 14.2.0 (Rev1, Built by MSYS2 project)\r\n  configuration: --enable-gpl --enable-version3 --enable-static --disable-w32threads --disable-autodetect --enable-fontconfig --enable-iconv --enable-gnutls --enable-lcms2 --enable-libxml2 --enable-gmp --enable-bzlib --enable-lzma --enable-libsnappy --enable-zlib --enable-librist --enable-libsrt --enable-libssh --enable-libzmq --enable-avisynth --enable-libbluray --enable-libcaca --enable-libdvdnav --enable-libdvdread --enable-sdl2 --enable-libaribb24 --enable-libaribcaption --enable-libdav1d --enable-libdavs2 --enable-libopenjpeg --enable-libquirc --enable-libuavs3d --enable-libxevd --enable-libzvbi --enable-libqrencode --enable-librav1e --enable-libsvtav1 --enable-libvvenc --enable-libwebp --enable-libx264 --enable-libx265 --enable-libxavs2 --enable-libxeve --enable-libxvid --enable-libaom --enable-libjxl --enable-libvpx --enable-mediafoundation --enable-libass --enable-frei0r --enable-libfreetype --enable-libfribidi --enable-libharfbuzz --enable-liblensfun --enable-libvidstab --enable-libvmaf --enable-libzimg --enable-amf --enable-cuda-llvm --enable-cuvid --enable-dxva2 --enable-d3d11va --enable-d3d12va --enable-ffnvcodec --enable-libvpl --enable-nvdec --enable-nvenc --enable-vaapi --enable-libshaderc --enable-vulkan --enable-libplacebo --enable-opencl --enable-libcdio --enable-libgme --enable-libmodplug --enable-libopenmpt --enable-libopencore-amrwb --enable-libmp3lame --enable-libshine --enable-libtheora --enable-libtwolame --enable-libvo-amrwbenc --enable-libcodec2 --enable-libilbc --enable-libgsm --enable-liblc3 --enable-libopencore-amrnb --enable-libopus --enable-libspeex --enable-libvorbis --enable-ladspa --enable-libbs2b --enable-libflite --enable-libmysofa --enable-librubberband --enable-libsoxr --enable-chromaprint\r\n  libavutil      59. 55.100 / 59. 55.100\r\n  libavcodec     61. 31.101 / 61. 31.101\r\n  libavformat    61.  9.106 / 61.  9.106\r\n  libavdevice    61.  4.100 / 61.  4.100\r\n  libavfilter    10.  6.101 / 10.  6.101\r\n  libswscale      8. 13.100 /  8. 13.100\r\n  libswresample   5.  4.100 /  5.  4.100\r\n  libpostproc    58.  4.100 / 58.  4.100\r\n[png @ 0000023abd5ae180] 1 undecompressed bytes left in buffer\r\n[png @ 0000023abd5ae180] chunk too big\r\nInput #0, png_pipe, from 'C:\\Users\\ADMIN\\AppData\\Local\\Temp\\media-editor-img-1772011682034\\input.jpg':\r\n  Duration: N/A, bitrate: N/A\r\n  Stream #0:0: Video: png, ya8(pc, gbr/unknown/unknown), 1x1, 25 fps, 25 tbr, 25 tbn\r\nStream mapping:\r\n  Stream #0:0 -> #0:0 (png (native) -> png (native))\r\nPress [q] to stop, [?] for help\r\n[png @ 0000023abd5a3ec0] 1 undecompressed bytes left in buffer\r\n[png @ 0000023abd5a3ec0] chunk too big\r\n[vist#0:0/png @ 0000023abd5a5ac0] [dec:png @ 0000023abd598980] Decoding error: Invalid data found when processing input\r\n[vist#0:0/png @ 0000023abd5a5ac0] [dec:png @ 0000023abd598980] Decode error rate 1 exceeds maximum 0.666667\r\n[vist#0:0/png @ 0000023abd5a5ac0] [dec:png @ 0000023abd598980] Task finished with error code: -1145393733 (Error number -1145393733 occurred)\r\n[vist#0:0/png @ 0000023abd5a5ac0] [dec:png @ 0000023abd598980] Terminating thread with return code -1145393733 (Error number -1145393733 occurred)\r\n[vf#0:0 @ 0000023abd5be380] No filtered frames for output stream, trying to initialize anyway.\r\nOutput #0, image2, to 'C:\\Users\\ADMIN\\AppData\\Local\\Temp\\media-editor-img-1772011682034\\output.png':\r\n  Metadata:\r\n    encoder         : Lavf61.9.106\r\n  Stream #0:0: Video: png, ya8(progressive), 100x100, q=2-31, 200 kb/s, 25 fps, 25 tbn\r\n    Metadata:\r\n      encoder         : Lavc61.31.101 png\r\n[out#0/image2 @ 0000023abd598f00] video:0KiB audio:0KiB subtitle:0KiB other streams:0KiB global headers:0KiB muxing overhead: unknown\r\n[out#0/image2 @ 0000023abd598f00] Output file is empty, nothing was encoded(check -ss / -t / -frames parameters if used)\r\nframe=    0 fps=0.0 q=0.0 Lsize=N/A time=N/A bitrate=N/A speed=N/A    \r\nConversion failed!\r\n"}